<svg xmlns="http://www.w3.org/2000/svg" viewBox="0 0 1500 1500">
  <g transform="matrix(1.4339335,0,0,1.4339335,168.39376,-307.64714)">
    <path fill="#000000" d="M310.39 263.7 L311.02 420.6 L449.3 420.6 C485.1 420.6 513.53 430 534.6 448.8 C555.67 467.6 566.2 494.4 566.2 529.2 C566.2 563.2 555.43 591.2 533.9 613.2 C512.37 635.2 481.4 646.2 441 646.2 L311.92 646.2 L312.55 801.7 L452 801.7 C496 801.7 529.73 813.83 553.2 838.1 C576.53 862.37 588.2 893.8 588.2 932.4 C588.2 970 576.27 999.1 552.4 1019.7 C528.6 1040.37 497.9 1050.7 460.3 1050.7 L313.54 1050.7 L314.17 1207.5 L489.3 1207.5 A315 315 0 0 0 629.6 1176.5 C671.73 1155.83 705.43 1126.5 730.7 1088.5 C755.9 1050.43 768.5 1005.73 768.5 954.4 C768.57 895.67 753 845.2 721.8 803 A227 227 0 0 0 601.9 717.7 L601.9 712.2 C644.17 697.6 678.83 671.23 705.9 633.1 C732.9 595.1 746.4 549.93 746.4 497.6 C746.4 451.87 735.4 411.3 713.4 375.9 C691.4 340.5 660.9 312.97 621.9 293.3 A290 290 0 0 0 489.2 263.7 Z"/>
  </g>
  <rect x="318.45" y="71.92" width="258.68" height="413.4" fill="#193cb8"/>
  <rect x="318.45" y="542.39" width="258.68" height="413.26" fill="#ff8904"/>
  <rect x="318.45" y="1012.72" width="258.68" height="413.4" fill="#008236"/>
</svg>
